<?xml version="1.0" encoding="UTF-8" standalone="no"?>
<!-- Created with Inkscape (http://www.inkscape.org/) -->
<svg
   xmlns:svg="http://www.w3.org/2000/svg"
   xmlns="http://www.w3.org/2000/svg"
   version="1.0"
   width="234.17044"
   height="230.67429"
   id="svg6446">
  <defs
     id="defs6448">
    <marker
       refX="0"
       refY="0"
       orient="auto"
       style="overflow:visible"
       id="Dot_s">
      <path
         d="M -2.5,-1 C -2.5,1.76 -4.74,4 -7.5,4 C -10.26,4 -12.5,1.76 -12.5,-1 C -12.5,-3.76 -10.26,-6 -7.5,-6 C -4.74,-6 -2.5,-3.76 -2.5,-1 z "
         transform="matrix(0.2,0,0,0.2,1.48,0.2)"
         style="fill-rule:evenodd;stroke:#000000;stroke-width:1pt;marker-start:none;marker-end:none"
         id="path5663" />
    </marker>
  </defs>
  <g
     transform="translate(-142.90957,-456.35416)"
     id="layer1">
    <path
       d="M 260,458.04166 L 335.32037,485.45604 L 375.3975,554.87167 L 361.47886,633.80821 L 300.07713,685.33038 L 219.92286,685.33038 L 158.52114,633.80821 L 144.6025,554.87166 L 184.67963,485.45604 L 260,458.04166 z "
       style="fill:none;fill-opacity:1;fill-rule:evenodd;stroke:#000000;stroke-width:1.5;stroke-linecap:round;stroke-linejoin:round;stroke-miterlimit:4;stroke-dashoffset:0;stroke-opacity:1"
       id="path6454" />
    <path
       d="M 219.92286,685.33038 L 144.6025,554.87166"
       style="fill:none;fill-opacity:1;fill-rule:evenodd;stroke:#000000;stroke-width:1.5;stroke-linecap:round;stroke-linejoin:round;stroke-miterlimit:4;stroke-dashoffset:0;stroke-opacity:1"
       id="path6459" />
    <path
       d="M 219.92286,685.33038 L 184.67963,485.45604"
       style="fill:none;fill-opacity:1;fill-rule:evenodd;stroke:#000000;stroke-width:1.5;stroke-linecap:round;stroke-linejoin:round;stroke-miterlimit:4;stroke-dashoffset:0;stroke-opacity:1"
       id="path6461" />
    <path
       d="M 219.92286,685.33038 L 260,458.04166"
       style="fill:none;fill-opacity:1;fill-rule:evenodd;stroke:#000000;stroke-width:1.5;stroke-linecap:round;stroke-linejoin:round;stroke-miterlimit:4;stroke-dashoffset:0;stroke-opacity:1"
       id="path6463" />
    <path
       d="M 219.92286,685.33038 L 335.32037,485.45604"
       style="fill:none;fill-opacity:1;fill-rule:evenodd;stroke:#000000;stroke-width:1.5;stroke-linecap:round;stroke-linejoin:round;stroke-miterlimit:4;stroke-dashoffset:0;stroke-opacity:1"
       id="path6465" />
    <path
       d="M 219.92286,685.33038 L 375.3975,554.87167"
       style="fill:none;fill-opacity:1;fill-rule:evenodd;stroke:#000000;stroke-width:1.5;stroke-linecap:round;stroke-linejoin:round;stroke-miterlimit:4;stroke-dashoffset:0;stroke-opacity:1"
       id="path6467" />
    <path
       d="M 219.92286,685.33038 L 361.47886,633.80821"
       style="fill:none;fill-opacity:1;fill-rule:evenodd;stroke:#000000;stroke-width:1.5;stroke-linecap:round;stroke-linejoin:round;stroke-miterlimit:4;stroke-dashoffset:0;stroke-opacity:1"
       id="path6469" />
    <path
       d="M 300.07713,685.33037 L 158.52114,633.80819"
       style="fill:none;fill-opacity:1;fill-rule:evenodd;stroke:#000000;stroke-width:1.5;stroke-linecap:round;stroke-linejoin:round;stroke-miterlimit:4;stroke-dashoffset:0;stroke-opacity:1"
       id="path6484" />
    <path
       d="M 300.07713,685.33037 L 144.6025,554.87166"
       style="fill:none;fill-opacity:1;fill-rule:evenodd;stroke:#000000;stroke-width:1.5;stroke-linecap:round;stroke-linejoin:round;stroke-miterlimit:4;stroke-dashoffset:0;stroke-opacity:1"
       id="path6486" />
    <path
       d="M 300.07713,685.33037 L 184.67962,485.45603"
       style="fill:none;fill-opacity:1;fill-rule:evenodd;stroke:#000000;stroke-width:1.5;stroke-linecap:round;stroke-linejoin:round;stroke-miterlimit:4;stroke-dashoffset:0;stroke-opacity:1"
       id="path6488" />
    <path
       d="M 300.07713,685.33037 L 259.99999,458.04167"
       style="fill:none;fill-opacity:1;fill-rule:evenodd;stroke:#000000;stroke-width:1.5;stroke-linecap:round;stroke-linejoin:round;stroke-miterlimit:4;stroke-dashoffset:0;stroke-opacity:1"
       id="path6490" />
    <path
       d="M 300.07713,685.33037 L 335.32036,485.45604"
       style="fill:none;fill-opacity:1;fill-rule:evenodd;stroke:#000000;stroke-width:1.5;stroke-linecap:round;stroke-linejoin:round;stroke-miterlimit:4;stroke-dashoffset:0;stroke-opacity:1"
       id="path6492" />
    <path
       d="M 300.07713,685.33037 L 375.39749,554.87166"
       style="fill:none;fill-opacity:1;fill-rule:evenodd;stroke:#000000;stroke-width:1.5;stroke-linecap:round;stroke-linejoin:round;stroke-miterlimit:4;stroke-dashoffset:0;stroke-opacity:1"
       id="path6494" />
    <path
       d="M 361.47885,633.80821 L 219.92286,685.33036"
       style="fill:none;fill-opacity:1;fill-rule:evenodd;stroke:#000000;stroke-width:1.49999988;stroke-linecap:round;stroke-linejoin:round;stroke-miterlimit:4;stroke-dashoffset:0;stroke-opacity:1"
       id="path6500" />
    <path
       d="M 361.47885,633.80821 L 158.52114,633.8082"
       style="fill:none;fill-opacity:1;fill-rule:evenodd;stroke:#000000;stroke-width:1.49999988;stroke-linecap:round;stroke-linejoin:round;stroke-miterlimit:4;stroke-dashoffset:0;stroke-opacity:1"
       id="path6502" />
    <path
       d="M 361.47885,633.80821 L 144.6025,554.87166"
       style="fill:none;fill-opacity:1;fill-rule:evenodd;stroke:#000000;stroke-width:1.49999988;stroke-linecap:round;stroke-linejoin:round;stroke-miterlimit:4;stroke-dashoffset:0;stroke-opacity:1"
       id="path6504" />
    <path
       d="M 361.47885,633.80821 L 184.67963,485.45604"
       style="fill:none;fill-opacity:1;fill-rule:evenodd;stroke:#000000;stroke-width:1.49999988;stroke-linecap:round;stroke-linejoin:round;stroke-miterlimit:4;stroke-dashoffset:0;stroke-opacity:1"
       id="path6506" />
    <path
       d="M 361.47885,633.80821 L 260,458.04167"
       style="fill:none;fill-opacity:1;fill-rule:evenodd;stroke:#000000;stroke-width:1.49999988;stroke-linecap:round;stroke-linejoin:round;stroke-miterlimit:4;stroke-dashoffset:0;stroke-opacity:1"
       id="path6508" />
    <path
       d="M 361.47885,633.80821 L 335.32037,485.45604"
       style="fill:none;fill-opacity:1;fill-rule:evenodd;stroke:#000000;stroke-width:1.49999988;stroke-linecap:round;stroke-linejoin:round;stroke-miterlimit:4;stroke-dashoffset:0;stroke-opacity:1"
       id="path6510" />
    <path
       d="M 375.3975,554.8717 L 300.07711,685.33039"
       style="fill:none;fill-opacity:1;fill-rule:evenodd;stroke:#000000;stroke-width:1.49999988;stroke-linecap:round;stroke-linejoin:round;stroke-miterlimit:4;stroke-dashoffset:0;stroke-opacity:1"
       id="path6516" />
    <path
       d="M 375.3975,554.8717 L 219.92285,685.33038"
       style="fill:none;fill-opacity:1;fill-rule:evenodd;stroke:#000000;stroke-width:1.49999988;stroke-linecap:round;stroke-linejoin:round;stroke-miterlimit:4;stroke-dashoffset:0;stroke-opacity:1"
       id="path6518" />
    <path
       d="M 375.3975,554.8717 L 158.52113,633.80821"
       style="fill:none;fill-opacity:1;fill-rule:evenodd;stroke:#000000;stroke-width:1.49999988;stroke-linecap:round;stroke-linejoin:round;stroke-miterlimit:4;stroke-dashoffset:0;stroke-opacity:1"
       id="path6520" />
    <path
       d="M 375.3975,554.8717 L 144.6025,554.87167"
       style="fill:none;fill-opacity:1;fill-rule:evenodd;stroke:#000000;stroke-width:1.49999988;stroke-linecap:round;stroke-linejoin:round;stroke-miterlimit:4;stroke-dashoffset:0;stroke-opacity:1"
       id="path6522" />
    <path
       d="M 375.3975,554.8717 L 184.67964,485.45605"
       style="fill:none;fill-opacity:1;fill-rule:evenodd;stroke:#000000;stroke-width:1.49999988;stroke-linecap:round;stroke-linejoin:round;stroke-miterlimit:4;stroke-dashoffset:0;stroke-opacity:1"
       id="path6524" />
    <path
       d="M 375.3975,554.8717 L 260,458.04168"
       style="fill:none;fill-opacity:1;fill-rule:evenodd;stroke:#000000;stroke-width:1.49999988;stroke-linecap:round;stroke-linejoin:round;stroke-miterlimit:4;stroke-dashoffset:0;stroke-opacity:1"
       id="path6526" />
    <path
       d="M 335.32038,485.45602 L 361.47884,633.80819"
       style="fill:none;fill-opacity:1;fill-rule:evenodd;stroke:#000000;stroke-width:1.49999988;stroke-linecap:round;stroke-linejoin:round;stroke-miterlimit:4;stroke-dashoffset:0;stroke-opacity:1"
       id="path6532" />
    <path
       d="M 335.32038,485.45602 L 300.07712,685.33034"
       style="fill:none;fill-opacity:1;fill-rule:evenodd;stroke:#000000;stroke-width:1.49999988;stroke-linecap:round;stroke-linejoin:round;stroke-miterlimit:4;stroke-dashoffset:0;stroke-opacity:1"
       id="path6534" />
    <path
       d="M 335.32038,485.45602 L 219.92286,685.33034"
       style="fill:none;fill-opacity:1;fill-rule:evenodd;stroke:#000000;stroke-width:1.49999988;stroke-linecap:round;stroke-linejoin:round;stroke-miterlimit:4;stroke-dashoffset:0;stroke-opacity:1"
       id="path6536" />
    <path
       d="M 335.32038,485.45602 L 158.52115,633.80816"
       style="fill:none;fill-opacity:1;fill-rule:evenodd;stroke:#000000;stroke-width:1.49999988;stroke-linecap:round;stroke-linejoin:round;stroke-miterlimit:4;stroke-dashoffset:0;stroke-opacity:1"
       id="path6538" />
    <path
       d="M 335.32038,485.45602 L 144.60251,554.87163"
       style="fill:none;fill-opacity:1;fill-rule:evenodd;stroke:#000000;stroke-width:1.49999988;stroke-linecap:round;stroke-linejoin:round;stroke-miterlimit:4;stroke-dashoffset:0;stroke-opacity:1"
       id="path6540" />
    <path
       d="M 335.32038,485.45602 L 184.67965,485.45601"
       style="fill:none;fill-opacity:1;fill-rule:evenodd;stroke:#000000;stroke-width:1.49999988;stroke-linecap:round;stroke-linejoin:round;stroke-miterlimit:4;stroke-dashoffset:0;stroke-opacity:1"
       id="path6542" />
    <path
       d="M 260.00002,458.04163 L 375.3975,554.87165"
       style="fill:none;fill-opacity:1;fill-rule:evenodd;stroke:#000000;stroke-width:1.49999988;stroke-linecap:round;stroke-linejoin:round;stroke-miterlimit:4;stroke-dashoffset:0;stroke-opacity:1"
       id="path6548" />
    <path
       d="M 260.00002,458.04163 L 361.47884,633.80818"
       style="fill:none;fill-opacity:1;fill-rule:evenodd;stroke:#000000;stroke-width:1.49999988;stroke-linecap:round;stroke-linejoin:round;stroke-miterlimit:4;stroke-dashoffset:0;stroke-opacity:1"
       id="path6550" />
    <path
       d="M 260.00002,458.04163 L 300.07712,685.33034"
       style="fill:none;fill-opacity:1;fill-rule:evenodd;stroke:#000000;stroke-width:1.49999988;stroke-linecap:round;stroke-linejoin:round;stroke-miterlimit:4;stroke-dashoffset:0;stroke-opacity:1"
       id="path6552" />
    <path
       d="M 260.00002,458.04163 L 219.92285,685.33032"
       style="fill:none;fill-opacity:1;fill-rule:evenodd;stroke:#000000;stroke-width:1.49999988;stroke-linecap:round;stroke-linejoin:round;stroke-miterlimit:4;stroke-dashoffset:0;stroke-opacity:1"
       id="path6554" />
    <path
       d="M 260.00002,458.04163 L 158.52114,633.80815"
       style="fill:none;fill-opacity:1;fill-rule:evenodd;stroke:#000000;stroke-width:1.49999988;stroke-linecap:round;stroke-linejoin:round;stroke-miterlimit:4;stroke-dashoffset:0;stroke-opacity:1"
       id="path6556" />
    <path
       d="M 260.00002,458.04163 L 144.60251,554.87161"
       style="fill:none;fill-opacity:1;fill-rule:evenodd;stroke:#000000;stroke-width:1.49999988;stroke-linecap:round;stroke-linejoin:round;stroke-miterlimit:4;stroke-dashoffset:0;stroke-opacity:1"
       id="path6558" />
    <path
       d="M 184.67964,485.45602 L 335.32038,485.45606"
       style="fill:none;fill-opacity:1;fill-rule:evenodd;stroke:#000000;stroke-width:1.49999988;stroke-linecap:round;stroke-linejoin:round;stroke-miterlimit:4;stroke-dashoffset:0;stroke-opacity:1"
       id="path6564" />
    <path
       d="M 184.67964,485.45602 L 375.39749,554.87168"
       style="fill:none;fill-opacity:1;fill-rule:evenodd;stroke:#000000;stroke-width:1.49999988;stroke-linecap:round;stroke-linejoin:round;stroke-miterlimit:4;stroke-dashoffset:0;stroke-opacity:1"
       id="path6566" />
    <path
       d="M 184.67964,485.45602 L 361.47885,633.80822"
       style="fill:none;fill-opacity:1;fill-rule:evenodd;stroke:#000000;stroke-width:1.49999988;stroke-linecap:round;stroke-linejoin:round;stroke-miterlimit:4;stroke-dashoffset:0;stroke-opacity:1"
       id="path6568" />
    <path
       d="M 184.67964,485.45602 L 300.07711,685.33038"
       style="fill:none;fill-opacity:1;fill-rule:evenodd;stroke:#000000;stroke-width:1.49999988;stroke-linecap:round;stroke-linejoin:round;stroke-miterlimit:4;stroke-dashoffset:0;stroke-opacity:1"
       id="path6570" />
    <path
       d="M 184.67964,485.45602 L 219.92285,685.33036"
       style="fill:none;fill-opacity:1;fill-rule:evenodd;stroke:#000000;stroke-width:1.49999988;stroke-linecap:round;stroke-linejoin:round;stroke-miterlimit:4;stroke-dashoffset:0;stroke-opacity:1"
       id="path6572" />
    <path
       d="M 184.67964,485.45602 L 158.52113,633.80819"
       style="fill:none;fill-opacity:1;fill-rule:evenodd;stroke:#000000;stroke-width:1.49999988;stroke-linecap:round;stroke-linejoin:round;stroke-miterlimit:4;stroke-dashoffset:0;stroke-opacity:1"
       id="path6574" />
    <path
       d="M 144.6025,554.87164 L 260.00002,458.04167"
       style="fill:none;fill-opacity:1;fill-rule:evenodd;stroke:#000000;stroke-width:1.49999988;stroke-linecap:round;stroke-linejoin:round;stroke-miterlimit:4;stroke-dashoffset:0;stroke-opacity:1"
       id="path6580" />
    <path
       d="M 144.6025,554.87164 L 335.32037,485.45605"
       style="fill:none;fill-opacity:1;fill-rule:evenodd;stroke:#000000;stroke-width:1.49999988;stroke-linecap:round;stroke-linejoin:round;stroke-miterlimit:4;stroke-dashoffset:0;stroke-opacity:1"
       id="path6582" />
    <path
       d="M 144.6025,554.87164 L 375.3975,554.87168"
       style="fill:none;fill-opacity:1;fill-rule:evenodd;stroke:#000000;stroke-width:1.49999988;stroke-linecap:round;stroke-linejoin:round;stroke-miterlimit:4;stroke-dashoffset:0;stroke-opacity:1"
       id="path6584" />
    <path
       d="M 144.6025,554.87164 L 361.47884,633.80821"
       style="fill:none;fill-opacity:1;fill-rule:evenodd;stroke:#000000;stroke-width:1.49999988;stroke-linecap:round;stroke-linejoin:round;stroke-miterlimit:4;stroke-dashoffset:0;stroke-opacity:1"
       id="path6586" />
    <path
       d="M 144.6025,554.87164 L 300.0771,685.33036"
       style="fill:none;fill-opacity:1;fill-rule:evenodd;stroke:#000000;stroke-width:1.49999988;stroke-linecap:round;stroke-linejoin:round;stroke-miterlimit:4;stroke-dashoffset:0;stroke-opacity:1"
       id="path6588" />
    <path
       d="M 144.6025,554.87164 L 219.92285,685.33035"
       style="fill:none;fill-opacity:1;fill-rule:evenodd;stroke:#000000;stroke-width:1.49999988;stroke-linecap:round;stroke-linejoin:round;stroke-miterlimit:4;stroke-dashoffset:0;stroke-opacity:1"
       id="path6590" />
    <path
       d="M 158.52112,633.80818 L 184.67965,485.45602"
       style="fill:none;fill-opacity:1;fill-rule:evenodd;stroke:#000000;stroke-width:1.49999988;stroke-linecap:round;stroke-linejoin:round;stroke-miterlimit:4;stroke-dashoffset:0;stroke-opacity:1"
       id="path6596" />
    <path
       d="M 158.52112,633.80818 L 260.00002,458.04167"
       style="fill:none;fill-opacity:1;fill-rule:evenodd;stroke:#000000;stroke-width:1.49999988;stroke-linecap:round;stroke-linejoin:round;stroke-miterlimit:4;stroke-dashoffset:0;stroke-opacity:1"
       id="path6598" />
    <path
       d="M 158.52112,633.80818 L 335.32038,485.45605"
       style="fill:none;fill-opacity:1;fill-rule:evenodd;stroke:#000000;stroke-width:1.49999988;stroke-linecap:round;stroke-linejoin:round;stroke-miterlimit:4;stroke-dashoffset:0;stroke-opacity:1"
       id="path6600" />
    <path
       d="M 158.52112,633.80818 L 375.3975,554.87168"
       style="fill:none;fill-opacity:1;fill-rule:evenodd;stroke:#000000;stroke-width:1.49999988;stroke-linecap:round;stroke-linejoin:round;stroke-miterlimit:4;stroke-dashoffset:0;stroke-opacity:1"
       id="path6602" />
    <path
       d="M 158.52112,633.80818 L 361.47884,633.80822"
       style="fill:none;fill-opacity:1;fill-rule:evenodd;stroke:#000000;stroke-width:1.49999988;stroke-linecap:round;stroke-linejoin:round;stroke-miterlimit:4;stroke-dashoffset:0;stroke-opacity:1"
       id="path6604" />
    <path
       d="M 158.52112,633.80818 L 300.07711,685.33037"
       style="fill:none;fill-opacity:1;fill-rule:evenodd;stroke:#000000;stroke-width:1.49999988;stroke-linecap:round;stroke-linejoin:round;stroke-miterlimit:4;stroke-dashoffset:0;stroke-opacity:1"
       id="path6606" />
    <path
       d="M 261.47,458.04166 C 261.47,458.86966 260.798,459.54166 259.97,459.54166 C 259.142,459.54166 258.47,458.86966 258.47,458.04166 C 258.47,457.21366 259.142,456.54166 259.97,456.54166 C 260.798,456.54166 261.47,457.21366 261.47,458.04166 z "
       style="fill:#ff0000;fill-rule:evenodd;stroke:#ff0000;stroke-width:0.3pt;marker-start:none;marker-end:none"
       id="path6684" />
    <path
       d="M 336.44646,486.40094 C 335.91423,487.03522 334.96749,487.11805 334.33321,486.58582 C 333.69892,486.05359 333.61609,485.10686 334.14832,484.47257 C 334.68055,483.83829 335.62729,483.75546 336.26157,484.28769 C 336.89585,484.81992 336.97868,485.76665 336.44646,486.40094 z "
       style="fill:#ff0000;fill-rule:evenodd;stroke:#ff0000;stroke-width:0.3pt;marker-start:none;marker-end:none"
       id="path6686" />
    <path
       d="M 375.65276,556.31934 C 374.83734,556.46312 374.05886,555.91802 373.91508,555.1026 C 373.7713,554.28718 374.3164,553.50869 375.13182,553.36491 C 375.94724,553.22113 376.72572,553.76623 376.8695,554.58165 C 377.01328,555.39707 376.46818,556.17556 375.65276,556.31934 z "
       style="fill:#ff0000;fill-rule:evenodd;stroke:#ff0000;stroke-width:0.3pt;marker-start:none;marker-end:none"
       id="path6688" />
    <path
       d="M 360.74386,635.08127 C 360.02679,634.66727 359.78082,633.7493 360.19482,633.03223 C 360.60882,632.31516 361.52679,632.06919 362.24386,632.48319 C 362.96093,632.89719 363.2069,633.81516 362.7929,634.53223 C 362.3789,635.2493 361.46093,635.49527 360.74386,635.08127 z "
       style="fill:#ff0000;fill-rule:evenodd;stroke:#ff0000;stroke-width:0.3pt;marker-start:none;marker-end:none"
       id="path6690" />
    <path
       d="M 298.69578,685.83315 C 298.41259,685.05508 298.81423,684.19377 299.59229,683.91058 C 300.37036,683.62739 301.23167,684.02902 301.51486,684.80709 C 301.79805,685.58515 301.39642,686.44647 300.61835,686.72966 C 299.84029,687.01285 298.97897,686.61122 298.69578,685.83315 z "
       style="fill:#ff0000;fill-rule:evenodd;stroke:#ff0000;stroke-width:0.3pt;marker-start:none;marker-end:none"
       id="path6692" />
    <path
       d="M 218.54151,684.82761 C 218.8247,684.04954 219.68602,683.64791 220.46408,683.9311 C 221.24215,684.21429 221.64378,685.07561 221.36059,685.85367 C 221.0774,686.63174 220.21609,687.03337 219.43802,686.75018 C 218.65996,686.46699 218.25832,685.60568 218.54151,684.82761 z "
       style="fill:#ff0000;fill-rule:evenodd;stroke:#ff0000;stroke-width:0.3pt;marker-start:none;marker-end:none"
       id="path6694" />
    <path
       d="M 157.78614,632.53515 C 158.50321,632.12115 159.42118,632.36712 159.83518,633.08419 C 160.24918,633.80126 160.00321,634.71923 159.28614,635.13323 C 158.56907,635.54723 157.6511,635.30126 157.2371,634.58419 C 156.8231,633.86712 157.06907,632.94915 157.78614,632.53515 z "
       style="fill:#ff0000;fill-rule:evenodd;stroke:#ff0000;stroke-width:0.3pt;marker-start:none;marker-end:none"
       id="path6696" />
    <path
       d="M 144.85776,553.42399 C 145.67318,553.56777 146.21828,554.34626 146.0745,555.16168 C 145.93072,555.9771 145.15224,556.5222 144.33682,556.37842 C 143.5214,556.23464 142.9763,555.45615 143.12008,554.64073 C 143.26386,553.82531 144.04234,553.28021 144.85776,553.42399 z "
       style="fill:#ff0000;fill-rule:evenodd;stroke:#ff0000;stroke-width:0.3pt;marker-start:none;marker-end:none"
       id="path6698" />
    <path
       d="M 185.80572,484.51114 C 186.33794,485.14543 186.25511,486.09216 185.62083,486.62439 C 184.98655,487.15662 184.03981,487.07379 183.50758,486.43951 C 182.97535,485.80522 183.05818,484.85849 183.69247,484.32626 C 184.32675,483.79403 185.27349,483.87686 185.80572,484.51114 z "
       style="fill:#ff0000;fill-rule:evenodd;stroke:#ff0000;stroke-width:0.3pt;marker-start:none;marker-end:none"
       id="path6700" />
    <path
       d="M 261.47,458.04166 C 261.47,458.86966 260.798,459.54166 259.97,459.54166 C 259.142,459.54166 258.47,458.86966 258.47,458.04166 C 258.47,457.21366 259.142,456.54166 259.97,456.54166 C 260.798,456.54166 261.47,457.21366 261.47,458.04166 z "
       style="fill:#ff0000;fill-rule:evenodd;stroke:#ff0000;stroke-width:0.3pt;marker-start:none;marker-end:none"
       id="path6702" />
  </g>
</svg>
